<?xml version="1.0" encoding="UTF-8"?>
<svg xmlns="http://www.w3.org/2000/svg" xmlns:xlink="http://www.w3.org/1999/xlink" width="432pt" height="79.2pt" viewBox="0 0 432 79.2" version="1.1">
<defs />
<path style="fill-rule:nonzero;fill:rgb(100%,100%,100%);fill-opacity:1;stroke-width:1;stroke-linecap:square;stroke-linejoin:round;stroke:rgb(100%,100%,100%);stroke-opacity:1;stroke-miterlimit:10;" d="M 0 0.00078125 L 432 0.00078125 L 432 79.2 L 0 79.2 L 0 0.00078125 " transform="matrix(1,0,0,-1,0,79.2)"/>
<g style=" stroke:none;fill-rule:nonzero;fill:rgb(6.666667%,33.333333%,48.627451%);">
    <path style="fill-opacity:1;" d="M 123.074219 28.808594 C 124.503906 26.207031 126.261719 24.324219 128.273438 23.023438 C 130.289062 21.789062 132.695312 21.136719 135.488281 21.136719 C 139.128906 21.136719 141.988281 22.4375 144.003906 25.039062 C 146.019531 27.636719 147.058594 31.34375 147.058594 36.085938 L 147.058594 57.539062 L 141.210938 57.539062 L 141.210938 36.28125 C 141.210938 32.902344 140.558594 30.367188 139.390625 28.675781 C 138.15625 27.050781 136.335938 26.207031 133.863281 26.207031 C 130.808594 26.207031 128.40625 27.246094 126.648438 29.261719 C 124.894531 31.277344 124.050781 34.007812 124.050781 37.453125 L 124.050781 57.539062 L 118.199219 57.539062 L 118.199219 36.28125 C 118.199219 32.902344 117.550781 30.367188 116.378906 28.675781 C 115.144531 27.050781 113.261719 26.207031 110.789062 26.207031 C 107.800781 26.207031 105.394531 27.246094 103.640625 29.261719 C 101.886719 31.277344 101.039062 34.007812 101.039062 37.453125 L 101.039062 57.539062 L 95.191406 57.539062 L 95.191406 21.984375 L 101.039062 21.984375 L 101.039062 27.507812 C 102.339844 25.363281 103.964844 23.738281 105.851562 22.699219 C 107.671875 21.65625 109.878906 21.136719 112.480469 21.136719 C 115.078125 21.136719 117.226562 21.789062 119.046875 23.085938 C 120.863281 24.386719 122.164062 26.335938 123.074219 28.808594 "/>
    <path style="fill-opacity:1;" d="M 174.878906 39.664062 C 170.136719 39.664062 166.886719 40.246094 165.066406 41.289062 C 163.246094 42.390625 162.335938 44.210938 162.335938 46.8125 C 162.335938 48.890625 162.984375 50.582031 164.351562 51.753906 C 165.714844 52.988281 167.601562 53.574219 169.941406 53.574219 C 173.191406 53.574219 175.789062 52.46875 177.738281 50.128906 C 179.691406 47.851562 180.664062 44.796875 180.664062 40.960938 L 180.664062 39.664062 L 174.878906 39.664062 M 186.515625 37.257812 L 186.515625 57.539062 L 180.664062 57.539062 L 180.664062 52.140625 C 179.300781 54.351562 177.609375 55.914062 175.660156 56.886719 C 173.710938 57.863281 171.238281 58.382812 168.378906 58.382812 C 164.738281 58.382812 161.816406 57.40625 159.671875 55.390625 C 157.523438 53.378906 156.484375 50.648438 156.484375 47.203125 C 156.484375 43.238281 157.785156 40.246094 160.515625 38.167969 C 163.179688 36.152344 167.144531 35.113281 172.476562 35.113281 L 180.664062 35.113281 L 180.664062 34.527344 C 180.664062 31.863281 179.753906 29.78125 178 28.289062 C 176.246094 26.859375 173.773438 26.078125 170.589844 26.078125 C 168.511719 26.078125 166.558594 26.335938 164.609375 26.859375 C 162.660156 27.378906 160.839844 28.09375 159.085938 29.003906 L 159.085938 23.609375 C 161.164062 22.828125 163.246094 22.175781 165.261719 21.789062 C 167.273438 21.398438 169.226562 21.136719 171.175781 21.136719 C 176.308594 21.136719 180.144531 22.503906 182.679688 25.167969 C 185.214844 27.832031 186.515625 31.863281 186.515625 37.257812 "/>
    <path style="fill-opacity:1;" d="M 204.324219 11.90625 L 204.324219 21.984375 L 216.351562 21.984375 L 216.351562 26.53125 L 204.324219 26.53125 L 204.324219 45.835938 C 204.324219 48.761719 204.714844 50.648438 205.496094 51.425781 C 206.273438 52.273438 207.898438 52.664062 210.371094 52.664062 L 216.351562 52.664062 L 216.351562 57.539062 L 210.371094 57.539062 C 205.820312 57.539062 202.699219 56.691406 201.011719 55.003906 C 199.320312 53.3125 198.476562 50.257812 198.476562 45.835938 L 198.476562 26.53125 L 194.183594 26.53125 L 194.183594 21.984375 L 198.476562 21.984375 L 198.476562 11.90625 L 204.324219 11.90625 "/>
    <path style="fill-opacity:1;" d="M 229.675781 52.207031 L 229.675781 70.992188 L 223.824219 70.992188 L 223.824219 21.984375 L 229.675781 21.984375 L 229.675781 27.378906 C 230.84375 25.296875 232.40625 23.738281 234.289062 22.699219 C 236.175781 21.65625 238.449219 21.136719 241.050781 21.136719 C 245.339844 21.136719 248.851562 22.890625 251.578125 26.273438 C 254.246094 29.71875 255.609375 34.203125 255.609375 39.792969 C 255.609375 45.382812 254.246094 49.933594 251.578125 53.3125 C 248.851562 56.691406 245.339844 58.382812 241.050781 58.382812 C 238.449219 58.382812 236.175781 57.863281 234.289062 56.886719 C 232.40625 55.914062 230.84375 54.351562 229.675781 52.207031 M 249.566406 39.792969 C 249.566406 35.503906 248.65625 32.1875 246.898438 29.71875 C 245.078125 27.246094 242.675781 26.011719 239.621094 26.011719 C 236.5 26.011719 234.09375 27.246094 232.339844 29.71875 C 230.519531 32.1875 229.675781 35.503906 229.675781 39.792969 C 229.675781 44.082031 230.519531 47.460938 232.339844 49.933594 C 234.09375 52.402344 236.5 53.574219 239.621094 53.574219 C 242.675781 53.574219 245.078125 52.402344 246.898438 49.933594 C 248.65625 47.460938 249.566406 44.082031 249.566406 39.792969 "/>
    <path style="fill-opacity:1;" d="M 265.296875 8.136719 L 271.144531 8.136719 L 271.144531 57.539062 L 265.296875 57.539062 L 265.296875 8.136719 "/>
    <path style="fill-opacity:1;" d="M 297.144531 26.078125 C 294.023438 26.078125 291.554688 27.3125 289.734375 29.78125 C 287.914062 32.253906 287.003906 35.566406 287.003906 39.792969 C 287.003906 44.082031 287.851562 47.398438 289.671875 49.867188 C 291.488281 52.335938 293.960938 53.507812 297.144531 53.507812 C 300.265625 53.507812 302.734375 52.335938 304.554688 49.867188 C 306.375 47.398438 307.285156 44.082031 307.285156 39.792969 C 307.285156 35.632812 306.375 32.253906 304.554688 29.78125 C 302.734375 27.3125 300.265625 26.078125 297.144531 26.078125 M 297.144531 21.136719 C 302.214844 21.136719 306.179688 22.828125 309.105469 26.078125 C 311.964844 29.390625 313.460938 33.941406 313.460938 39.792969 C 313.460938 45.640625 311.964844 50.191406 309.105469 53.441406 C 306.179688 56.757812 302.214844 58.382812 297.144531 58.382812 C 292.011719 58.382812 287.980469 56.757812 285.121094 53.441406 C 282.261719 50.191406 280.828125 45.640625 280.828125 39.792969 C 280.828125 33.941406 282.261719 29.390625 285.121094 26.078125 C 287.980469 22.828125 292.011719 21.136719 297.144531 21.136719 "/>
    <path style="fill-opacity:1;" d="M 328.929688 11.90625 L 328.929688 21.984375 L 340.953125 21.984375 L 340.953125 26.53125 L 328.929688 26.53125 L 328.929688 45.835938 C 328.929688 48.761719 329.320312 50.648438 330.101562 51.425781 C 330.878906 52.273438 332.503906 52.664062 334.976562 52.664062 L 340.953125 52.664062 L 340.953125 57.539062 L 334.976562 57.539062 C 330.425781 57.539062 327.304688 56.691406 325.613281 55.003906 C 323.925781 53.3125 323.078125 50.257812 323.078125 45.835938 L 323.078125 26.53125 L 318.789062 26.53125 L 318.789062 21.984375 L 323.078125 21.984375 L 323.078125 11.90625 L 328.929688 11.90625 "/>
    <path style="fill-opacity:1;" d="M 348.625 8.136719 L 354.476562 8.136719 L 354.476562 57.539062 L 348.625 57.539062 L 348.625 8.136719 "/>
    <path style="fill-opacity:1;" d="M 366.695312 21.984375 L 372.546875 21.984375 L 372.546875 57.539062 L 366.695312 57.539062 L 366.695312 21.984375 M 366.695312 8.136719 L 372.546875 8.136719 L 372.546875 15.546875 L 366.695312 15.546875 L 366.695312 8.136719 "/>
    <path style="fill-opacity:1;" d="M 410.308594 39.792969 C 410.308594 35.503906 409.398438 32.1875 407.644531 29.71875 C 405.824219 27.246094 403.421875 26.011719 400.363281 26.011719 C 397.246094 26.011719 394.839844 27.246094 393.085938 29.71875 C 391.265625 32.1875 390.421875 35.503906 390.421875 39.792969 C 390.421875 44.082031 391.265625 47.460938 393.085938 49.933594 C 394.839844 52.402344 397.246094 53.574219 400.363281 53.574219 C 403.421875 53.574219 405.824219 52.402344 407.644531 49.933594 C 409.398438 47.460938 410.308594 44.082031 410.308594 39.792969 M 390.421875 27.378906 C 391.589844 25.296875 393.148438 23.738281 395.035156 22.699219 C 396.921875 21.65625 399.195312 21.136719 401.796875 21.136719 C 406.085938 21.136719 409.59375 22.890625 412.324219 26.273438 C 414.988281 29.71875 416.355469 34.203125 416.355469 39.792969 C 416.355469 45.382812 414.988281 49.933594 412.324219 53.3125 C 409.59375 56.691406 406.085938 58.382812 401.796875 58.382812 C 399.195312 58.382812 396.921875 57.863281 395.035156 56.886719 C 393.148438 55.914062 391.589844 54.351562 390.421875 52.207031 L 390.421875 57.539062 L 384.570312 57.539062 L 384.570312 8.136719 L 390.421875 8.136719 L 390.421875 27.378906 "/>
</g>
<path style="stroke:none;fill-rule:nonzero;fill:rgb(100%,100%,100%);fill-opacity:0.05;" d="M 54 73.261719 C 62.925781 73.261719 71.488281 69.714844 77.800781 63.402344 C 84.113281 57.089844 87.660156 48.527344 87.660156 39.601562 C 87.660156 30.671875 84.113281 22.109375 77.800781 15.796875 C 71.488281 9.488281 62.925781 5.941406 54 5.941406 C 45.074219 5.941406 36.511719 9.488281 30.199219 15.796875 C 23.886719 22.109375 20.339844 30.671875 20.339844 39.601562 C 20.339844 48.527344 23.886719 57.089844 30.199219 63.402344 C 36.511719 69.714844 45.074219 73.261719 54 73.261719 Z M 54 73.261719 "/>
<g transform="matrix(1,0,0,-1,0,79.2)">
    <g style="fill:none;stroke-width:0.8;stroke-linecap:square;stroke-linejoin:round;stroke:rgb(50.000763%,50.000763%,50.000763%);stroke-opacity:0.9;stroke-miterlimit:10;">
        <path  d="M 54 39.598438 L 87.660156 39.598438 " />
        <path d="M 54 39.598438 L 77.800781 63.403125 "/>
        <path d="M 54 39.598438 L 54 73.258594 "/>
        <path d="M 54 39.598438 L 30.199219 63.403125 "/>
        <path d="M 54 39.598438 L 20.339844 39.598438 "/>
        <path d="M 54 39.598438 L 30.199219 15.797656 "/>
        <path d="M 54 39.598438 L 54 5.938281 "/>
        <path d="M 54 39.598438 L 77.800781 15.797656 "/>
        <path d="M 57.738281 39.598438 L 57.59375 40.629688 L 57.101562 41.692188 L 56.089844 42.7 L 54 43.340625 L 52.96875 43.196094 L 51.910156 42.7 L 50.898438 41.692188 L 50.261719 39.598438 L 50.40625 38.567188 L 50.898438 37.508594 L 51.910156 36.500781 L 54 35.860156 L 55.03125 36.004688 L 56.089844 36.500781 L 57.101562 37.508594 L 57.738281 39.598438 L 57.738281 39.598438 "/>
        <path d="M 65.21875 39.598438 L 65.160156 40.774219 L 64.976562 41.934375 L 64.25 44.164844 L 62.839844 46.508594 L 60.59375 48.676563 L 58.203125 50.004688 L 55.949219 50.649219 L 53.609375 50.813281 L 51.285156 50.485156 L 49.082031 49.684375 L 46.789062 48.196094 L 44.699219 45.875781 L 43.597656 43.801563 L 42.949219 41.547656 L 42.785156 39.207813 L 43.113281 36.8875 L 43.914062 34.680469 L 45.40625 32.3875 L 47.726562 30.297656 L 49.796875 29.196094 L 52.050781 28.551563 L 54.390625 28.3875 L 56.714844 28.711719 L 58.917969 29.516406 L 61.210938 31.004688 L 63.300781 33.325 L 64.402344 35.395313 L 65.050781 37.653125 L 65.191406 38.817188 L 65.191406 38.817188 "/>
        <path d="M 72.699219 39.598438 L 72.292969 43.489063 L 71.082031 47.207813 L 69.128906 50.590625 L 66.988281 53.051563 L 63.351562 55.79375 L 59.777344 57.383594 L 55.953125 58.196094 L 52.046875 58.196094 L 48.222656 57.383594 L 44.648438 55.79375 L 42.488281 54.336719 L 39.675781 51.621875 L 37.488281 48.379688 L 36.023438 44.754688 L 35.34375 40.903125 L 35.480469 36.996875 L 36.429688 33.203906 L 38.140625 29.692188 L 39.675781 27.578906 L 42.488281 24.864063 L 45.800781 22.79375 L 49.476562 21.453906 L 53.347656 20.910938 L 57.246094 21.184375 L 61.003906 22.2625 L 64.457031 24.098438 L 66.988281 26.149219 L 69.859375 29.692188 L 71.570312 33.203906 L 72.519531 36.996875 L 72.699219 39.598438 L 72.699219 39.598438 "/>
        <path d="M 80.179688 39.598438 L 80.117188 41.426563 L 79.925781 43.242969 L 79.164062 46.817188 L 77.917969 50.246875 L 76.203125 53.473438 L 74.054688 56.426563 L 71.519531 59.055469 L 68.640625 61.305469 L 65.476562 63.129688 L 62.089844 64.496875 L 58.546875 65.383594 L 54.914062 65.7625 L 51.261719 65.6375 L 47.667969 65.000781 L 44.191406 63.871875 L 40.910156 62.274219 L 37.882812 60.23125 L 35.167969 57.785938 L 32.820312 54.989063 L 30.882812 51.891406 L 29.398438 48.555469 L 28.390625 45.04375 L 27.882812 41.426563 L 27.882812 37.774219 L 28.390625 34.157031 L 29.398438 30.645313 L 30.882812 27.309375 L 32.820312 24.211719 L 35.167969 21.414844 L 37.882812 18.969531 L 40.910156 16.926563 L 44.191406 15.325 L 47.667969 14.196094 L 51.261719 13.563281 L 54.914062 13.434375 L 58.546875 13.817188 L 62.089844 14.7 L 65.476562 16.071094 L 68.640625 17.895313 L 71.519531 20.145313 L 74.054688 22.770313 L 76.203125 25.727344 L 77.917969 28.95 L 79.164062 32.383594 L 79.925781 35.957813 L 80.179688 39.598438 L 80.179688 39.598438 "/>
    </g>
    <path style="fill-rule:nonzero;fill:rgb(0%,29.999237%,100%);fill-opacity:0.6;stroke-width:1;stroke-linecap:square;stroke-linejoin:round;stroke:rgb(0%,0%,0%);stroke-opacity:0.6;stroke-miterlimit:10;" d="M 54 39.598438 L 60.402344 41.680469 L 61.402344 40.676563 L 61.480469 39.66875 L 56.242188 39.598438 L 54.148438 39.598438 L 54.148438 39.598438 "/>
    <path style="fill-rule:nonzero;fill:rgb(80.645457%,100%,16.128786%);fill-opacity:0.6;stroke-width:1;stroke-linecap:square;stroke-linejoin:round;stroke:rgb(0%,0%,0%);stroke-opacity:0.6;stroke-miterlimit:10;" d="M 54 39.598438 L 61.886719 60.610156 L 65.011719 59.153125 L 67.09375 57.825 L 67.710938 56.79375 L 54.28125 39.95 L 54.28125 39.95 "/>
    <path style="fill-rule:nonzero;fill:rgb(100%,40.740063%,0%);fill-opacity:0.6;stroke-width:1;stroke-linecap:square;stroke-linejoin:round;stroke:rgb(0%,0%,0%);stroke-opacity:0.6;stroke-miterlimit:10;" d="M 54 39.598438 L 34.824219 62.567188 L 39.101562 65.547656 L 43.296875 67.539844 L 46.519531 68.571094 L 47.542969 67.895313 L 53.933594 39.891406 L 53.933594 39.891406 "/>
    <path style="fill-rule:nonzero;fill:rgb(100%,77.051957%,0%);fill-opacity:0.6;stroke-width:1;stroke-linecap:square;stroke-linejoin:round;stroke:rgb(0%,0%,0%);stroke-opacity:0.6;stroke-miterlimit:10;" d="M 54 39.598438 L 28.242188 34.926563 L 27.820312 39.504688 L 28.207031 44.090625 L 29.390625 48.535938 L 30.273438 50.660938 L 31.355469 50.504688 L 53.765625 39.711719 L 53.765625 39.711719 "/>
    <path style="fill-rule:nonzero;fill:rgb(16.128786%,100%,80.645457%);fill-opacity:0.6;stroke-width:1;stroke-linecap:square;stroke-linejoin:round;stroke:rgb(0%,0%,0%);stroke-opacity:0.6;stroke-miterlimit:10;" d="M 54 39.598438 L 41.824219 31.164844 L 41.011719 32.172656 L 40.65625 33.172656 L 53.59375 39.407031 L 53.59375 39.407031 "/>
    <path style="fill-rule:nonzero;fill:rgb(49.019608%,100%,47.754635%);fill-opacity:0.6;stroke-width:1;stroke-linecap:square;stroke-linejoin:round;stroke:rgb(0%,0%,0%);stroke-opacity:0.6;stroke-miterlimit:10;" d="M 54 39.598438 L 57.007812 21.903125 L 55.96875 21.004688 L 52.886719 20.934375 L 49.839844 21.367969 L 53.832031 38.871875 L 53.832031 38.871875 "/>
    <path style="fill-rule:nonzero;fill:rgb(100%,40.740063%,0%);fill-opacity:0.6;stroke-width:1;stroke-linecap:square;stroke-linejoin:round;stroke:rgb(0%,0%,0%);stroke-opacity:0.6;stroke-miterlimit:10;" d="M 54 39.598438 L 77.601562 21.207813 L 74.824219 18.114063 L 72.765625 16.297656 L 69.855469 19.715625 L 54 39.598438 L 54 39.598438 "/>
    <path style="fill:none;stroke-width:1;stroke-linecap:square;stroke-linejoin:round;stroke:rgb(50.196078%,50.196078%,50.196078%);stroke-opacity:1;stroke-miterlimit:10;" d="M 54 5.938281 C 62.925781 5.938281 71.488281 9.485156 77.800781 15.797656 C 84.113281 22.110156 87.660156 30.672656 87.660156 39.598438 C 87.660156 48.528125 84.113281 57.090625 77.800781 63.403125 C 71.488281 69.711719 62.925781 73.258594 54 73.258594 C 45.074219 73.258594 36.511719 69.711719 30.199219 63.403125 C 23.886719 57.090625 20.339844 48.528125 20.339844 39.598438 C 20.339844 30.672656 23.886719 22.110156 30.199219 15.797656 C 36.511719 9.485156 45.074219 5.938281 54 5.938281 Z M 54 5.938281 "/>
</g>
</svg>
