<svg xmlns="http://www.w3.org/2000/svg" xmlns:xlink="http://www.w3.org/1999/xlink" viewBox="0 0 104 32" fill="#fff" fill-rule="evenodd" stroke="#000" stroke-linecap="round" stroke-linejoin="round"><style><![CDATA[.B{fill-rule:nonzero}.C{fill:#ccac8d}.D{fill:#442823}.E{fill:#56332b}.F{fill:#efcca3}.G{stroke-width:1.598}]]></style><use xlink:href="#A" x=".5" y=".5"/><symbol id="A" overflow="visible"><g stroke="none" class="B"><path d="M55.568 5.805h5.73v.187c.4-.174.815-.32 1.242-.428s.868-.162 1.31-.16c.962 0 1.857.187 2.685.548s1.55.855 2.15 1.483c.615.628 1.082 1.363 1.43 2.2s.508 1.723.508 2.66a7.09 7.09 0 0 1-.494 2.672 6.68 6.68 0 0 1-1.403 2.19c-.6.627-1.323 1.1-2.15 1.47s-1.737.534-2.725.534a7.2 7.2 0 0 1-1.563-.16 7.4 7.4 0 0 1-1.4-.454v2.872H63.4v3.473h-8.555v-3.473h2.15V9.251h-1.416V5.803zm8.002 3.113a2.84 2.84 0 0 0-1.496.414 3.53 3.53 0 0 0-1.176 1.176v3.7a3.12 3.12 0 0 0 1.109 1.055 3.14 3.14 0 0 0 1.576.4 2.98 2.98 0 0 0 1.229-.254c.387-.16.72-.4 1.015-.695.28-.294.52-.655.68-1.07a3.4 3.4 0 0 0 .254-1.336c0-.534-.08-1.015-.254-1.43a2.95 2.95 0 0 0-.68-1.07 2.86 2.86 0 0 0-1.015-.668c-.387-.147-.802-.227-1.242-.227zm16.42-3.113h6.212v9.66h1.6v3.473h-5.57v-1.122a4.79 4.79 0 0 1-1.576.935c-.6.214-1.296.334-2.084.334a6.16 6.16 0 0 1-2.057-.347 4.73 4.73 0 0 1-1.683-1.029c-.48-.454-.855-1.042-1.122-1.737-.28-.695-.414-1.5-.414-2.445V9.265h-1.7V5.793h5.8v7.735c0 .882.227 1.536.668 1.977.454.44 1.03.655 1.75.655.508 0 .962-.16 1.376-.468s.708-.735.895-1.27V9.279h-2.084zm18.8 12.45a5.83 5.83 0 0 1-1.416.588c-.466.12-.962.174-1.443.174-1.015 0-1.95-.174-2.806-.52s-1.6-.828-2.218-1.443a6.63 6.63 0 0 1-1.456-2.178 7.08 7.08 0 0 1-.52-2.725c0-.922.16-1.8.494-2.605a6.6 6.6 0 0 1 1.403-2.138c.6-.615 1.323-1.095 2.15-1.456.842-.36 1.75-.534 2.725-.548.557.004 1.113.067 1.657.187a7.67 7.67 0 0 1 1.416.481v-.28h3.848V18.39c0 1.1-.187 2.07-.574 2.872a5.87 5.87 0 0 1-1.523 2.004 6.16 6.16 0 0 1-2.23 1.176c-.842.254-1.737.387-2.66.387-1.15 0-2.218-.16-3.193-.468a9.45 9.45 0 0 1-2.605-1.269l1.6-2.82c.591.376 1.228.673 1.897.882.68.214 1.443.32 2.284.32.454 0 .882-.053 1.256-.147.387-.107.72-.267 1.002-.508s.508-.56.668-.975c.16-.4.24-.922.24-1.536v-.053zm-2.74-2.752a2.91 2.91 0 0 0 1.603-.454c.48-.294.855-.695 1.136-1.2l.027-3.193c-.294-.534-.68-.95-1.176-1.27a3.17 3.17 0 0 0-1.617-.481 3.54 3.54 0 0 0-1.216.254c-.401.16-.748.374-1.03.668-.294.294-.52.628-.695 1.015s-.254.828-.254 1.3c0 .508.08.962.254 1.376a3.42 3.42 0 0 0 .681 1.055c.28.294.628.508 1.015.668a3.31 3.31 0 0 0 1.27.24z" fill="#4d4d4d"/><path d="M41.195 9.452c-.077-1.691.154-3.189-.615-4.457C38.736 1.844 34.125 0 24.903 0v.269h-.192.192V0C15.682 0 10.84 1.844 8.996 5.034c-.73 1.306-.653 2.766-.768 4.457-.077 1.345-.692 2.767-.423 4.304.307 1.998.423 3.996.73 5.84.231 1.499 2.305 2.767 2.498 4.188.538 3.919 4.611 5.725 13.833 5.725v.307h-.192.23v-.307c9.222 0 13.141-1.806 13.641-5.725.192-1.46 2.113-2.69 2.344-4.188.307-1.844.423-3.842.73-5.84.269-1.537-.346-2.997-.423-4.342z" class="F"/><g class="C"><path d="M24.75 10.836c1.652.038 2.805 1.076 3.881 2.037 1.268 1.114 3.42 1.883 4.303 2.843s2.036 1.921 2.459 3.42.538 3.42.538 3.919.269.384 1.038 0c1.806-.884 3.804-3.266 3.804-3.266-.231 1.499-2.19 2.843-2.382 4.265-.461 3.919-4.265 5.802-13.679 5.802h-.038.231"/><path d="M30.821 7.839c.346 1.191 1.575 5.226-.807 3.881 0 0 .999.576 1.614 2.767.653 2.19 2.229 2.459 2.229 2.459s2.574.5 4.496-1.153c1.614-1.383 1.883-3.842 1.191-5.725-.692-1.844-1.921-2.421-3.727-2.805-1.806-.423-5.418-.769-4.995.576z"/></g><use xlink:href="#C" fill="#000"/><path d="M33.626 10.721a.88.88 0 1 1 1.767 0 .88.88 0 1 1-1.767 0z"/><path d="M30.244 12.065s3.035 2.075 4.688 4.111 1.614 2.421 1.614 2.421l-1.191.538s-1.691-3.189-3.765-4.38c-2.113-1.191-2.344-2.19-2.344-2.19z" class="F"/><path d="M24.865 10.836c-1.652.038-2.882 1.076-3.996 2.037-1.268 1.114-3.497 1.883-4.38 2.843s-2.075 1.921-2.498 3.42-.576 3.42-.576 3.919.077.538-1.037 0c-1.806-.845-3.804-3.266-3.804-3.266.231 1.499 2.19 2.843 2.382 4.265.538 3.919 4.342 5.802 13.756 5.802h.192" class="C"/><path d="M33.78 17.329c-1.844-2.267-4.803-4.38-8.914-4.38h-.038c-4.111 0-7.07 2.113-8.914 4.38-1.921 2.344-1.767 3.266-1.767 5.495 0 8.069 2.843 5.764 4.726 6.763 1.921.961 3.919.653 5.956.653h.038c2.075 0 4.035.269 5.956-.692 1.883-.961 4.726 1.422 4.726-6.647.038-2.229.154-3.228-1.767-5.571z" class="E"/><g class="D"><path d="M24.673 14.947s-.269 3.727-.807 4.457l.999-.231z"/><path d="M24.942 14.947s.269 3.727.807 4.457l-.999-.231z"/></g><path d="M21.714 14.063c-.384-.884.999-2.306 3.189-2.344 2.19 0 3.573 1.422 3.189 2.344s-1.767 1.191-3.189 1.229c-1.383-.038-2.805-.307-3.189-1.229z" class="E"/><path d="M24.903 14.947c0-.154 1.306-.192 1.998-.653 0 0-1.422.461-1.729.269-.307-.154-.384-.615-.384-.615s-.115.461-.346.615c-.269.154-1.883-.269-1.883-.269l2.152.653c0 .115-.038.499-.038.768l.154 3.535c.231.346.154-2.574.154-3.535l-.077-.768z" fill="#000"/></g><path d="M24.98 20.096c.653 0 1.806.461 2.843 1.191-.999-1.114-2.19-1.883-2.843-1.883-.692 0-2.152.845-3.189 2.075 1.076-.845 2.459-1.383 3.189-1.383z" stroke="#4d4d4d" fill="#7f4a41" class="B G"/><g stroke="none"><g class="D"><path d="M24.712 26.897c-1.46 0-2.882-.461-4.188-.807-.269-.077-.538.115-.807.038-2.421-.768-4.38-2.075-5.571-3.727v.384c0 8.069 2.843 5.802 4.726 6.763 1.921.961 3.919.653 5.956.653h.038c2.075 0 4.035.269 5.956-.692 1.883-.961 4.726 1.383 4.726-6.686l.038-.884c-1.114 1.806-3.151 3.228-5.687 4.073-.231.077-.768-.115-.999-.077-1.383.461-2.613.961-4.188.961z" class="B"/><path d="M21.061 22.555s-.96 2.882-.307 4.15l-.884-.384s.653-2.92 1.191-3.766zm7.608 0s.961 2.882.307 4.15l.884-.384s-.692-2.92-1.191-3.766z" class="B"/></g><path d="M18.602 7.839c-.346 1.191-1.575 5.226.807 3.881 0 0-.999.576-1.614 2.767s-2.229 2.459-2.229 2.459-2.574.5-4.496-1.153c-1.614-1.383-1.883-3.842-1.191-5.725s1.921-2.421 3.727-2.805c1.806-.423 5.379-.769 4.995.576z" class="B C"/><path d="M24.865 19.404c1.037 0 4.265 2.229 4.304 4.957v-.154c0-2.843-2.613-5.11-4.303-5.11s-4.303 2.305-4.303 5.11v.154c.038-2.728 3.266-4.957 4.304-4.957z" fill="#000" class="B"/><path d="M25.262 13.603c-.08-.309-.011-.592.154-.635s.362.172.441.481.011.592-.154.635-.362-.172-.442-.481zm-1.657-.166c.095-.305.302-.51.464-.459s.217.337.123.642-.302.51-.464.459-.218-.337-.123-.642z" class="B" fill="#331712"/><use xlink:href="#C" x="-21.172" fill="#000" class="B"/><path d="M14.221 10.721a.88.88 0 1 1 1.768 0 .88.88 0 0 1-1.767 0z" class="B"/></g><path d="M25.864 12.258c0-.038-.884.384-1.114.423-.23-.038-1.114-.461-1.114-.423h2.229z" stroke="#4d4d4d" fill="#7f4a41" class="B G"/><g stroke="none"><path d="M19.14 12.065s-3.035 2.075-4.688 4.111-1.614 2.421-1.614 2.421l1.191.538s1.691-3.189 3.766-4.38 2.344-2.19 2.344-2.19z" class="B F"/><g class="C"><path d="M12.492 5.917S11.455 8.76 9.149 9.951c0 0 3.612-.423 3.343-4.035zm24.246 0s1.038 2.843 3.343 4.035c0 0-3.612-.423-3.343-4.035zm-6.571 5.303S27.9 8.837 24.864 8.76c-.038 0 .077 0 .038 0s.038 0 .038 0c-3.074.077-5.302 2.459-5.302 2.459 2.651-1.844 4.918-1.806 5.302-1.806-.038 0 2.574-.038 5.226 1.806zm-2.651-4.995s-1.153-1.614-2.69-1.652h.077c-1.153.038-2.651 1.652-2.651 1.652 1.306-1.268 2.651-1.229 2.651-1.229s1.268-.038 2.613 1.229zM14.221 18.02s-1.806.884-3.112.346h-.038c-1.153-.653-1.729-2.613-1.729-2.613s1.153 3.458 4.88 2.267zm21.056 0s1.806.884 3.112.346c1.537-.653 1.767-2.613 1.767-2.613s-1.153 3.458-4.88 2.267zM16.296 5.725c.999-.192 2.651-.231 3.958.192 1.652.576.307 2.69.653 2.805s.807-1.46 3.881-1.306c3.112.154 3.458 1.537 3.881 1.306s-.423-3.842 4.227-2.997c0 0-4.88-1.306-4.649 2.229 0 0-2.805-2.152-6.724-.231.038 0 1.037-3.304-5.226-1.998zm17.022 0c.077 0 .115.038.154.038s-.038-.038-.154-.038z" class="B"/><path d="M33.318 5.725zM14.952.999s-4.15 5.226-4.765 7.224c-.615 2.037-1.076 10.374-1.614 11.566l-1.921-8.223 3.535-8.569zm19.519 0s4.15 5.226 4.765 7.224c.615 2.037 1.076 10.374 1.614 11.566l1.921-8.223-3.535-8.569z" class="B"/></g><path d="M34.278.999s4.457 3.727 5.764 8.031.768 9.529 1.767 10.182c1.422.922 3.035-4.572 3.573-5.149.845-.922 3.65-3.266 3.842-3.689s-5.687-6.839-8.261-8.107C37.852.806 34.009.691 34.278.999z" class="B E"/><path d="M38.083 3.304s5.264 6.724 5.187 15.101l2.113-4.303c-.038 0-1.883-5.495-7.3-10.797z" class="B D"/><path d="M14.952.999s-4.457 3.727-5.764 8.031-.769 9.529-1.768 10.182c-1.422.922-3.035-4.572-3.573-5.149-.845-.922-3.65-3.266-3.842-3.689s5.687-6.839 8.261-8.107C11.378.806 15.221.691 14.952.999z" class="B E"/><path d="M11.147 3.304S5.883 10.028 5.96 18.405l-2.075-4.303s1.844-5.495 7.262-10.797z" class="B D"/><path d="M8.304 18.559s.384 2.075.999 2.728.192-.5.192-.5-.653-.346-.538-2.997-.653.768-.653.768zm32.776 0s-.384 2.075-.999 2.728-.192-.5-.192-.5.653-.346.538-2.997.653.768.653.768z" class="B C"/><g class="D"><use xlink:href="#D" class="B"/><use xlink:href="#D" x="-1.767" y="1.844" class="B"/><use xlink:href="#D" x="-2.343" class="B"/><use xlink:href="#D" x="7.493" class="B"/><use xlink:href="#D" x="9.261" y="1.844" class="B"/><use xlink:href="#D" x="9.837" class="B"/></g></g></symbol><defs ><path id="C" d="M32.012 12.219c0-1.873 1.508-3.381 3.381-3.381s3.381 1.508 3.381 3.381-1.508 3.381-3.381 3.381-3.381-1.508-3.381-3.381z"/><path id="D" d="M20.561 16.983c0-.17.137-.307.307-.307s.307.137.307.307-.137.307-.307.307-.307-.137-.307-.307z"/></defs></svg>